<svg xmlns="http://www.w3.org/2000/svg" viewBox="0 0 121 89">
  <path d="M96.5,76.114v8.119h3.222v1.96H96.5V89H93.9V86.193H90.684v-1.96H93.9V76.114h-.432c0,4.311-6.089,10.953-7.591,10.953V84.251c.665,0,5.331-5.4,5.331-8.137H86.164v-2H93.9V71.49H96.5v2.622h7.74v2H99.189c0,2.732,4.664,8.137,5.331,8.137v2.816c-1.5,0-7.59-6.641-7.59-10.953ZM64.509,86.676H52.435V78.838H55c0,1.861-1.009,3.69-2.568,3.69l.006,2.048c2.8,0,5.078-2.57,5.078-5.732l2.213-.006v3.538c0,.985.348,1.781,2.567,1.781h2.216V82.2H63.463c-1.438,0-1.229-.447-1.229-.793V78.838h2.274v9.8h2.709V76.876H62.235V73.8h5.548v-1.96H49.161V73.8H59.726v3.079H57.518V73.8H55.007v3.079H49.726V88.634H64.509Zm17.569,1.789H84.7V72.227H69.171V88.465H82.077V86.506H71.8V81.325H82.077v-1.96H71.8V74.185H82.077ZM106.1,40.278a11.681,11.681,0,0,0,9.625-5.174A27.037,27.037,0,0,0,119.9,20.312,28.52,28.52,0,0,0,115.486,5.6,12.708,12.708,0,0,0,104.993,0H46.7V43.193c0,3.994-3.562,5.423-4.926,5.777a44.459,44.459,0,0,1-11.128,1.524,43.3,43.3,0,0,1-10.4-1.323c-2.637-.716-4.623-2.611-4.623-5.613V26.422H0L0,47.617C0,60.635,17.877,64.71,31.164,64.71s31.169-4.075,31.169-17.093V14.035H99.661a4.534,4.534,0,0,1,3.944,2.237,9.612,9.612,0,0,1-.019,7.958,4.614,4.614,0,0,1-3.909,2.192H70.624L100.4,63.795H121L100.771,40.278H106.1M47.667,82.716c.06,4.871.076,5.757.076,5.757H44.65l-.031-4.96A1.355,1.355,0,0,0,43.1,82.064h-7.99v6.409h-3V71.849H42.468c1.985,0,5.165.58,5.165,3.44v2.7a2.25,2.25,0,0,1-1.972,2.457,2.408,2.408,0,0,1,2.007,2.27M44.591,76.2s.183-1.546-1.81-1.546H35.114V79.2h7.667s1.81.114,1.81-1.432V76.2m-17.9,6.878c0,2.569-2.705,2.486-2.705,2.486H20.916s-2.667-.1-2.667-2.2V80.683H15.2v2.679c0,5.309,5.183,5.111,6.5,5.111h1.505c2.714,0,6.546-.3,6.546-5.488V71.848H26.692Z" fill="#0065b1"/>
</svg>
